<?xml version="1.0" standalone="no"?>
<!DOCTYPE svg PUBLIC "-//W3C//DTD SVG 20010904//EN"
 "http://www.w3.org/TR/2001/REC-SVG-20010904/DTD/svg10.dtd">
<svg version="1.0" xmlns="http://www.w3.org/2000/svg"
 width="80.000000pt" height="80.000000pt" viewBox="0 0 80.000000 80.000000"
 preserveAspectRatio="xMidYMid meet">
<metadata>
Created by potrace 1.14, written by Peter Selinger 2001-2017
</metadata>
<g transform="translate(0.000000,80.000000) scale(0.100000,-0.100000)"
fill="#000000" stroke="none">
<path d="M285 783 c-11 -2 -30 -6 -42 -9 -33 -6 -94 -63 -109 -101 -31 -73 0
-207 57 -247 23 -15 25 -15 41 6 30 39 40 93 30 161 -7 46 -7 70 3 92 18 42
59 78 91 78 18 0 22 2 13 7 -21 11 -62 18 -84 13z"/>
<path d="M505 780 c-46 -10 -76 -28 -128 -79 -46 -43 -77 -88 -77 -110 0 -12
45 -22 99 -23 45 0 86 14 143 49 55 34 100 31 132 -9 l26 -33 0 33 c0 99 -104
191 -195 172z"/>
<path d="M533 573 c-7 -2 -13 -14 -13 -24 0 -53 72 -130 140 -150 51 -15 70
-38 77 -88 5 -34 8 -39 20 -29 40 33 55 115 32 175 -17 46 -69 92 -123 108
-49 15 -109 18 -133 8z"/>
<path d="M34 525 c-51 -67 -43 -172 19 -242 56 -63 141 -88 215 -62 28 9 31
14 26 37 -15 63 -83 135 -150 156 -41 13 -77 62 -77 105 0 23 -1 41 -3 41 -2
0 -15 -16 -30 -35z"/>
<path d="M552 352 c-24 -51 -30 -95 -19 -157 10 -55 -15 -102 -70 -131 l-42
-22 31 -6 c120 -24 225 44 236 153 6 65 -12 115 -61 168 -22 23 -42 43 -46 43
-3 0 -16 -22 -29 -48z"/>
<path d="M345 226 c-22 -7 -68 -28 -102 -46 -71 -37 -104 -36 -127 8 -15 26
-15 26 -16 4 0 -51 47 -124 99 -151 33 -18 101 -17 137 2 37 19 154 142 154
162 0 9 -15 17 -37 20 -21 4 -45 8 -53 10 -8 2 -33 -2 -55 -9z"/>
</g>
</svg>
